<svg width="28" height="28" viewBox="0 0 28 28" fill="none" xmlns="http://www.w3.org/2000/svg">
<g clip-path="url(#clip0)">
<path d="M26.4055 21.1437C25.824 20.7344 25.1529 20.5146 24.475 20.4787C21.92 18.8056 20.2463 17.5498 19.2691 16.5726L16.2675 13.571L18.0889 11.532C18.4342 11.7269 18.8049 11.8553 19.1758 11.9083C19.4557 11.9549 19.6422 11.9549 19.8288 11.9549C20.202 11.9549 20.2952 11.9549 20.6684 12.2814C20.4819 12.4213 20.3885 12.6545 20.3885 12.8877C20.3885 13.1209 20.4819 13.4008 20.6684 13.5874L22.3009 15.2199C22.5342 15.4998 22.9073 15.6397 23.2804 15.6397C23.6536 15.6397 24.0267 15.4998 24.26 15.1733L27.5716 11.8616C27.8515 11.6283 27.9914 11.2552 27.9914 10.8821C27.9914 10.5089 27.8515 10.1824 27.5716 9.90257L25.9391 8.27003C25.7526 8.08348 25.5193 7.99018 25.2861 7.99018C25.0529 7.99018 24.8197 8.13011 24.6331 8.27003C24.2599 7.94355 24.2599 7.85024 24.2599 7.47708C24.2599 7.29053 24.2599 7.05729 24.1666 6.77743C24.0733 6.12441 23.7468 5.47144 23.2337 4.95835L21.5546 3.27919C20.575 2.29968 20.1086 1.83327 18.8493 1.27355C16.144 0.0141792 13.392 0.247414 9.38067 2.0665C9.14743 2.15981 9.05418 2.34636 9.10081 2.57959C9.14743 2.81283 9.33404 2.95276 9.56722 2.95276H10.1736C12.2259 2.95276 13.2986 2.95276 15.1644 4.81847C15.9814 5.63542 16.0049 6.88806 15.273 7.80969C15.1743 7.82455 15.0992 7.86883 15.0245 7.94355L12.9525 10.2561L11.3863 8.68988C9.66485 6.96841 8.45402 5.33971 7.52212 3.52614C7.4732 2.60846 7.10495 1.74985 6.44214 1.08705C5.64925 0.294148 4.52981 -0.0790161 3.41037 0.0142886C3.27044 0.0609136 3.13051 0.154218 3.08389 0.247523C2.99058 0.387453 2.99058 0.574008 3.08389 0.713937L4.38988 3.04612C4.11002 3.65246 3.457 4.02563 2.80403 3.979L1.45135 1.74007C1.40473 1.60014 1.21812 1.50684 1.07819 1.50684C0.93826 1.46021 0.798331 1.55346 0.705026 1.69339C-0.414412 3.37255 0.0053775 5.61142 1.68453 6.77749C2.26306 7.19072 2.91482 7.42051 3.5749 7.46763C3.58228 7.47074 3.58922 7.47457 3.59687 7.47714C5.41596 8.41002 7.04849 9.62271 8.77427 11.3485L10.4802 13.0156L0.565151 24.0822C0.191987 24.4554 0.00543213 24.9684 0.00543213 25.4815C0.00543213 25.9946 0.191987 26.461 0.565151 26.8342L1.21817 27.4872C1.59134 27.8137 2.05775 28.0003 2.52417 28.0003C2.99058 28.0003 3.50368 27.8137 3.87684 27.4406L13.7805 16.3548L16.6571 19.2313C17.6356 20.2099 18.8936 21.9335 20.5704 24.4483C20.6305 25.346 20.9979 26.1842 21.6479 26.8342C22.3476 27.5338 23.2804 27.907 24.26 27.907C24.3999 27.907 24.5398 27.907 24.6331 27.907C24.773 27.907 24.913 27.8137 25.0063 27.6738C25.0996 27.5338 25.0996 27.3473 25.0063 27.2073L23.6536 24.9218C23.9801 24.3155 24.5865 23.9423 25.2861 23.989L26.5921 26.2278C26.6388 26.3678 26.8254 26.4611 26.9653 26.4611C27.1519 26.4144 27.2918 26.3678 27.3851 26.2278C28.5045 24.5486 28.038 22.3097 26.4055 21.1437ZM15.7709 4.07225C14.2783 2.62633 13.1588 2.15986 11.8995 2.01993C14.5581 1.18035 16.5171 1.22698 18.4762 2.11323C19.5956 2.57965 19.9688 2.95281 20.9483 3.93232L22.6274 5.61148C23.0006 5.98464 23.2338 6.45106 23.2804 6.91747C23.3271 7.15071 23.3271 7.33726 23.3271 7.47719C23.3271 7.99028 23.3737 8.36339 23.9334 8.92311C24.12 9.10967 24.3998 9.20297 24.6331 9.20297C24.9129 9.20297 25.1462 9.10967 25.2861 8.92311L26.9186 10.5556C27.0119 10.6489 27.0585 10.7422 27.0585 10.8821C27.0585 11.0221 27.0119 11.1154 26.9186 11.2086L23.6069 14.5203C23.4204 14.7069 23.1405 14.7069 22.9539 14.5203L21.3214 12.8878C21.5079 12.7478 21.6012 12.5146 21.5546 12.2347C21.5546 12.0015 21.4613 11.7217 21.2747 11.5351C20.715 10.9754 20.3419 10.9288 19.8288 10.9288C19.6889 10.9288 19.5023 10.9288 19.2691 10.8821C18.756 10.8355 18.3362 10.6023 17.9631 10.2291L15.9575 8.22346C16.9836 6.96415 16.8903 5.19169 15.7709 4.07225ZM1.12487 2.95281L2.10438 4.63197C2.19768 4.7719 2.33761 4.8652 2.47754 4.8652H2.71078C3.78359 4.91183 4.7631 4.35211 5.22951 3.41928L5.32282 3.18605C5.41612 3.04612 5.41612 2.90619 5.32282 2.76626L4.29663 0.993797C4.85635 1.0871 5.36944 1.36696 5.78923 1.78675C6.27013 2.30772 6.57803 2.96659 6.59623 3.67433C6.58721 3.71024 6.58213 3.74888 6.58213 3.79245C6.58213 4.00846 6.55606 4.21918 6.50779 4.42229C6.33184 5.09767 5.90992 5.68653 5.32276 6.078C4.38988 6.68435 3.13051 6.68435 2.19768 6.03138C1.21817 5.33162 0.798385 4.07225 1.12487 2.95281ZM9.42735 10.6956C8.02805 9.24965 6.62875 8.13021 5.13615 7.24396C5.36939 7.15065 5.64925 7.01072 5.88243 6.87079C6.58207 6.40438 7.04849 5.79798 7.32835 5.0517C8.21455 6.54431 9.33399 7.9436 10.7333 9.3429L12.3354 10.945L11.079 12.3473L9.42735 10.6956ZM3.22382 26.7409C2.85065 27.114 2.24431 27.1607 1.87114 26.7875L1.21812 26.1812C1.03157 25.9946 0.93826 25.7614 0.93826 25.5281C0.93826 25.2483 1.03157 25.015 1.26474 24.7819L1.52892 24.4863L2.19763 25.155C2.29093 25.2483 2.38418 25.2949 2.52411 25.2949C2.66404 25.2949 2.75735 25.2483 2.8506 25.155C3.03715 24.9685 3.03715 24.6886 2.8506 24.502L2.14526 23.7967L2.76167 23.107L3.50362 23.849C3.59693 23.9423 3.69018 23.9889 3.83011 23.9889C3.97003 23.9889 4.06334 23.9423 4.15659 23.849C4.34314 23.6624 4.34314 23.3826 4.15659 23.1959L3.37812 22.4174L15.3757 8.99439L17.3347 10.9534L15.4098 13.107C15.3548 13.1302 15.3062 13.1658 15.2578 13.2143L13.3921 15.3133C13.3388 15.3665 13.3013 15.4276 13.2784 15.4917L3.22382 26.7409ZM14.4187 15.6403L15.6952 14.2115L18.7093 17.2256C19.5489 18.1119 20.9948 19.2313 23.0938 20.6306C22.8139 20.7239 22.5341 20.8638 22.2542 21.0504C21.6755 21.4121 21.2657 21.9142 20.9801 22.4694C20.9759 22.4773 20.972 22.4854 20.9678 22.4933C20.9509 22.5267 20.9344 22.5603 20.9183 22.5941C20.8953 22.6419 20.8734 22.6903 20.8525 22.7392C20.8382 22.7722 20.8239 22.8053 20.8104 22.8386C20.8085 22.8434 20.8066 22.8482 20.8047 22.853C20.79 22.8895 20.7754 22.926 20.7617 22.9628C20.4967 22.5742 20.2418 22.2075 19.9967 21.862L20.6217 21.237C20.8083 21.0504 20.8083 20.7706 20.6217 20.584C20.4352 20.3974 20.1553 20.3974 19.9687 20.584L19.4487 21.1039C19.2549 20.8409 19.0677 20.5928 18.8871 20.3596L19.3157 19.9309C19.5023 19.7444 19.5023 19.4645 19.3157 19.2779C19.1292 19.0914 18.8493 19.0914 18.6627 19.2779L18.3067 19.634C17.9638 19.2208 17.6476 18.8692 17.3567 18.5783L14.4187 15.6403ZM26.9186 24.9684L25.9391 23.2893C25.8458 23.1493 25.7058 23.056 25.5659 23.056H25.3327C24.2598 22.9627 23.2803 23.5691 22.8139 24.5019L22.7206 24.7352C22.6273 24.8751 22.6273 25.015 22.7206 25.155L23.7468 26.9274C23.187 26.8341 22.6739 26.5543 22.2541 26.1345C21.7824 25.6233 21.4774 24.9795 21.4487 24.2871C21.4567 24.253 21.4612 24.2164 21.4612 24.1755C21.4612 23.5846 21.6488 23.0314 21.9757 22.5628C22.1766 22.2832 22.4278 22.0385 22.7206 21.8433C23.187 21.5168 23.7001 21.3769 24.2598 21.3769C24.8195 21.3769 25.3792 21.5635 25.8456 21.89C26.8253 22.5896 27.2451 23.849 26.9186 24.9684Z" fill="#E3B873"/>
</g>
<defs>
<clipPath id="clip0">
<rect x="0.000244141" y="0.000244141" width="28" height="28" fill="white"/>
</clipPath>
</defs>
</svg>
